<svg xmlns="http://www.w3.org/2000/svg" viewBox="0 0 1400 900" style="background:#0d1117;font-family:'Segoe UI',system-ui,sans-serif">
  <defs>
    <linearGradient id="bgGrad" x1="0" y1="0" x2="1400" y2="900">
      <stop offset="0%" stop-color="#0d1117"/>
      <stop offset="50%" stop-color="#161b22"/>
      <stop offset="100%" stop-color="#0d1117"/>
    </linearGradient>
    <linearGradient id="loop1" x1="0" y1="0" x2="1" y2="1">
      <stop offset="0%" stop-color="#58a6ff"/>
      <stop offset="100%" stop-color="#1f6feb"/>
    </linearGradient>
    <linearGradient id="loop2" x1="0" y1="0" x2="1" y2="1">
      <stop offset="0%" stop-color="#3fb950"/>
      <stop offset="100%" stop-color="#238636"/>
    </linearGradient>
    <linearGradient id="loop3" x1="0" y1="0" x2="1" y2="1">
      <stop offset="0%" stop-color="#d29922"/>
      <stop offset="100%" stop-color="#9e6a03"/>
    </linearGradient>
    <linearGradient id="metricBar" x1="0" y1="0" x2="1" y2="0">
      <stop offset="0%" stop-color="#3fb950"/>
      <stop offset="73.4%" stop-color="#3fb950"/>
      <stop offset="73.4%" stop-color="#21262d"/>
      <stop offset="100%" stop-color="#21262d"/>
    </linearGradient>
    <linearGradient id="nodeHigh" x1="0" y1="0" x2="0" y2="1">
      <stop offset="0%" stop-color="#3fb950"/>
      <stop offset="100%" stop-color="#238636"/>
    </linearGradient>
    <linearGradient id="nodeMid" x1="0" y1="0" x2="0" y2="1">
      <stop offset="0%" stop-color="#58a6ff"/>
      <stop offset="100%" stop-color="#1f6feb"/>
    </linearGradient>
    <linearGradient id="orchGrad" x1="0" y1="0" x2="0" y2="1">
      <stop offset="0%" stop-color="#bc8cff"/>
      <stop offset="100%" stop-color="#8957e5"/>
    </linearGradient>
    <linearGradient id="fireGrad" x1="0" y1="0" x2="0" y2="1">
      <stop offset="0%" stop-color="#f78166"/>
      <stop offset="100%" stop-color="#da3633"/>
    </linearGradient>
    <filter id="glow">
      <feGaussianBlur stdDeviation="3" result="blur"/>
      <feMerge><feMergeNode in="blur"/><feMergeNode in="SourceGraphic"/></feMerge>
    </filter>
    <filter id="shadow">
      <feDropShadow dx="0" dy="2" stdDeviation="4" flood-color="#000" flood-opacity="0.4"/>
    </filter>
  </defs>

  <rect width="1400" height="900" fill="url(#bgGrad)"/>

  <!-- Header -->
  <text x="700" y="42" fill="#f0f6fc" font-size="26" font-weight="700" text-anchor="middle" letter-spacing="2">CCDEW — ENNEAGRAM INTELLIGENCE CORE</text>
  <text x="700" y="66" fill="#8b949e" font-size="14" text-anchor="middle">Autonomous Self-Improving AI Agent Ecosystem — Live Metrics</text>

  <!-- Main 3-box layout -->
  <!-- ─── LOOP 1 BOX ─── -->
  <rect x="30" y="90" width="440" height="370" rx="12" fill="#161b22" stroke="#30363d" stroke-width="1" filter="url(#shadow)"/>
  <rect x="30" y="90" width="440" height="36" rx="12" fill="url(#loop1)" opacity="0.15"/>
  <rect x="30" y="114" width="440" height="12" fill="url(#loop1)" opacity="0.15"/>
  <circle cx="56" cy="108" r="10" fill="url(#loop1)" filter="url(#glow)"/>
  <text x="72" y="113" fill="#58a6ff" font-size="15" font-weight="700">LOOP 1 · TASK EXECUTION</text>
  <text x="390" y="113" fill="#8b949e" font-size="11" text-anchor="end">~seconds</text>

  <!-- Task Input -->
  <rect x="145" y="145" width="190" height="42" rx="21" fill="#21262d" stroke="#58a6ff" stroke-width="1.5"/>
  <text x="240" y="171" fill="#58a6ff" font-size="14" font-weight="600" text-anchor="middle">Task Input</text>

  <!-- Arrow 1 -->
  <polygon points="335,166 365,155 365,177" fill="#58a6ff" opacity="0.6"/>

  <!-- Enneagram Core Box -->
  <rect x="70" y="205" width="350" height="100" rx="10" fill="#1c2333" stroke="#30363d" stroke-width="1"/>
  <text x="245" y="228" fill="#f0f6fc" font-size="13" font-weight="600" text-anchor="middle">Enneagram Core — 9 Cognitive Nodes</text>
  <text x="245" y="244" fill="#8b949e" font-size="10" text-anchor="middle">select → inject → execute → learn</text>

  <!-- 9 mini circles -->
  <g transform="translate(100, 260)">
    <rect x="0" y="0" width="290" height="32" rx="4" fill="#0d1117"/>
    <circle cx="16" cy="16" r="10" fill="#3fb950"/><text x="16" y="20" fill="#fff" font-size="9" text-anchor="middle">3</text>
    <circle cx="52" cy="16" r="10" fill="#3fb950"/><text x="52" y="20" fill="#fff" font-size="9" text-anchor="middle">7</text>
    <circle cx="88" cy="16" r="10" fill="#58a6ff"/><text x="88" y="20" fill="#fff" font-size="9" text-anchor="middle">5</text>
    <circle cx="124" cy="16" r="10" fill="#58a6ff"/><text x="124" y="20" fill="#fff" font-size="9" text-anchor="middle">2</text>
    <circle cx="160" cy="16" r="10" fill="#bc8cff"/><text x="160" y="20" fill="#fff" font-size="8" text-anchor="middle">9</text>
    <circle cx="196" cy="16" r="10" fill="#f78166"/><text x="196" y="20" fill="#fff" font-size="9" text-anchor="middle">1</text>
    <circle cx="232" cy="16" r="10" fill="#f78166"/><text x="232" y="20" fill="#fff" font-size="9" text-anchor="middle">4</text>
    <circle cx="268" cy="16" r="10" fill="#f78166"/><text x="268" y="20" fill="#fff" font-size="9" text-anchor="middle">6</text>
    <circle cx="276" cy="16" r="10" fill="#f78166" opacity="0"/><text x="276" y="20" fill="#fff" font-size="0">8</text>
  </g>

  <!-- Arrow 2 -->
  <polygon points="245,305 245,317 235,317 245,330 255,317 245,317" fill="#58a6ff" opacity="0.6"/>

  <!-- Pipeline -->
  <rect x="85" y="333" width="340" height="46" rx="8" fill="#0d1117" stroke="#30363d" stroke-width="1"/>
  <text x="255" y="353" fill="#f0f6fc" font-size="12" font-weight="600" text-anchor="middle">Pipeline (divergent → convergent)</text>
  <text x="255" y="369" fill="#8b949e" font-size="10" text-anchor="middle">pre-action: secret_scan + permissions → post-action: safla + instincts + codeburn</text>

  <!-- Arrow 3 down -->
  <polygon points="250,379 250,391 240,391 250,404 260,391 250,391" fill="#58a6ff" opacity="0.6"/>

  <!-- Learn -->
  <rect x="145" y="407" width="190" height="35" rx="17" fill="#21262d" stroke="#58a6ff" stroke-width="1"/>
  <text x="240" y="429" fill="#58a6ff" font-size="12" font-weight="600" text-anchor="middle">SAFLA Record + Episode Save</text>

  <!-- ─── LOOP 2 BOX ─── -->
  <rect x="490" y="90" width="440" height="370" rx="12" fill="#161b22" stroke="#30363d" stroke-width="1" filter="url(#shadow)"/>
  <rect x="490" y="90" width="440" height="36" rx="12" fill="url(#loop2)" opacity="0.15"/>
  <rect x="490" y="114" width="440" height="12" fill="url(#loop2)" opacity="0.15"/>
  <circle cx="516" cy="108" r="10" fill="url(#loop2)" filter="url(#glow)"/>
  <text x="532" y="113" fill="#3fb950" font-size="15" font-weight="700">LOOP 2 · SELF-TRAINING DAEMON</text>
  <text x="850" y="113" fill="#8b949e" font-size="11" text-anchor="end">~30s</text>

  <!-- Self-Train -->
  <rect x="565" y="145" width="280" height="42" rx="10" fill="#1c2333" stroke="#3fb950" stroke-width="1.5"/>
  <text x="705" y="163" fill="#3fb950" font-size="13" font-weight="600" text-anchor="middle">hermes-self-train.py</text>
  <text x="705" y="179" fill="#8b949e" font-size="10" text-anchor="middle">Selects weakest node → trains → records outcome</text>

  <!-- Arrow -->
  <polygon points="705,187 705,199 695,199 705,212 715,199 705,199" fill="#3fb950" opacity="0.6"/>

  <!-- Loop back arc -->
  <path d="M 565 230 Q 510 230 510 290 Q 510 340 565 340" fill="none" stroke="#3fb950" stroke-width="1.5" stroke-dasharray="5,3" opacity="0.4"/>

  <!-- Convergence Engine -->
  <rect x="565" y="215" width="280" height="120" rx="10" fill="#1c2333" stroke="#30363d" stroke-width="1"/>
  <text x="705" y="238" fill="#f0f6fc" font-size="13" font-weight="600" text-anchor="middle">Convergence Engine</text>

  <!-- Metric bar -->
  <rect x="585" y="252" width="240" height="18" rx="9" fill="#21262d"/>
  <rect x="585" y="252" width="176" height="18" rx="9" fill="url(#metricBar)"/>
  <text x="705" y="265" fill="#f0f6fc" font-size="10" font-weight="700" text-anchor="middle">CONVERGENCE 73.4%</text>

  <text x="705" y="288" fill="#8b949e" font-size="10" text-anchor="middle">weight_stability · handoff_decay</text>
  <text x="705" y="303" fill="#8b949e" font-size="10" text-anchor="middle">prompt_effectiveness</text>
  <text x="705" y="320" fill="#3fb950" font-size="10" text-anchor="middle">Trend: converging → 95% target</text>

  <!-- Arrow -->
  <polygon points="705,335 705,347 695,347 705,360 715,347 705,347" fill="#3fb950" opacity="0.6"/>

  <!-- Iterations counter -->
  <rect x="610" y="365" width="190" height="35" rx="17" fill="#21262d" stroke="#3fb950" stroke-width="1"/>
  <text x="705" y="387" fill="#3fb950" font-size="12" font-weight="600" text-anchor="middle">111 iterations · 187 episodes</text>

  <!-- Arrow to loop 1 -->
  <polygon points="490,408 478,408 478,398 465,408 478,418 478,408" fill="#3fb950" opacity="0.5"/>

  <!-- ─── LOOP 3 BOX ─── -->
  <rect x="950" y="90" width="430" height="370" rx="12" fill="#161b22" stroke="#30363d" stroke-width="1" filter="url(#shadow)"/>
  <rect x="950" y="90" width="430" height="36" rx="12" fill="url(#loop3)" opacity="0.15"/>
  <rect x="950" y="114" width="430" height="12" fill="url(#loop3)" opacity="0.15"/>
  <circle cx="976" cy="108" r="10" fill="url(#loop3)" filter="url(#glow)"/>
  <text x="992" y="113" fill="#d29922" font-size="15" font-weight="700">LOOP 3 · PYRAMID CONSOLIDATION</text>
  <text x="1360" y="113" fill="#8b949e" font-size="11" text-anchor="end">~10 episodes</text>

  <!-- Memory Pyramid -->
  <g transform="translate(1050, 145)">
    <polygon points="100,0 200,0 230,30 70,30" fill="#21262d" stroke="#d29922" stroke-width="1.5"/>
    <text x="150" y="22" fill="#d29922" font-size="12" font-weight="700" text-anchor="middle">N6 · Principles</text>

    <polygon points="85,35 215,35 245,65 55,65" fill="#21262d" stroke="#d29922" stroke-width="1" opacity="0.8"/>
    <text x="150" y="57" fill="#d29922" font-size="11" font-weight="600" text-anchor="middle">N5 · Attitudes</text>

    <polygon points="70,70 230,70 260,100 40,100" fill="#21262d" stroke="#d29922" stroke-width="1" opacity="0.7"/>
    <text x="150" y="92" fill="#d29922" font-size="11" font-weight="600" text-anchor="middle">N4 · Skills</text>

    <polygon points="55,105 245,105 275,135 25,135" fill="#21262d" stroke="#d29922" stroke-width="1" opacity="0.6"/>
    <text x="150" y="127" fill="#d29922" font-size="11" font-weight="600" text-anchor="middle">N3 · Techniques</text>

    <polygon points="40,140 260,140 290,170 10,170" fill="#21262d" stroke="#d29922" stroke-width="1" opacity="0.5"/>
    <text x="150" y="162" fill="#d29922" font-size="11" font-weight="600" text-anchor="middle">N2 · Patterns</text>

    <polygon points="0,175 300,175 340,210 -40,210" fill="#21262d" stroke="#d29922" stroke-width="1" opacity="0.4"/>
    <text x="150" y="199" fill="#8b949e" font-size="11" font-weight="600" text-anchor="middle">N1 · Episodic (9702+ entries)</text>
  </g>

  <!-- Engine -->
  <rect x="1000" y="370" width="310" height="35" rx="8" fill="#0d1117" stroke="#30363d" stroke-width="1"/>
  <text x="1155" y="385" fill="#d29922" font-size="11" font-weight="600" text-anchor="middle">hermes-memory.py · reverse_mirror · auto_consolidate</text>
  <text x="1155" y="398" fill="#8b949e" font-size="10" text-anchor="middle">mirror_inverse.jsonl (separate channel)</text>

  <!-- Arrow -->
  <polygon points="950,380 938,380 938,370 925,380 938,390 938,380" fill="#d29922" opacity="0.5"/>

  <!-- ─── BOTTOM: INFRASTRUCTURE ─── -->
  <rect x="30" y="485" width="1350" height="140" rx="12" fill="#161b22" stroke="#30363d" stroke-width="1" filter="url(#shadow)"/>
  <rect x="30" y="485" width="1350" height="32" rx="12" fill="#21262d"/>
  <rect x="30" y="505" width="1350" height="12" fill="#21262d"/>
  <text x="705" y="506" fill="#8b949e" font-size="13" font-weight="700" text-anchor="middle">INFRASTRUCTURE LAYER</text>

  <!-- HTTP Bridge -->
  <rect x="55" y="530" width="300" height="75" rx="8" fill="#0d1117" stroke="#58a6ff" stroke-width="1.5"/>
  <text x="205" y="552" fill="#58a6ff" font-size="13" font-weight="700" text-anchor="middle">HTTP Bridge</text>
  <text x="205" y="568" fill="#8b949e" font-size="10" text-anchor="middle">127.0.0.1:18777</text>
  <text x="205" y="584" fill="#8b949e" font-size="10" text-anchor="middle">GET /bridge · POST /safla · POST /log</text>
  <text x="205" y="598" fill="#3fb950" font-size="10" text-anchor="middle">Zero race conditions · Single process</text>

  <!-- SAFLA State -->
  <rect x="380" y="530" width="280" height="75" rx="8" fill="#0d1117" stroke="#3fb950" stroke-width="1.5"/>
  <text x="520" y="552" fill="#3fb950" font-size="13" font-weight="700" text-anchor="middle">SAFLA State</text>
  <text x="520" y="568" fill="#8b949e" font-size="10" text-anchor="middle">Single writer: pipeline.py</text>
  <text x="520" y="584" fill="#8b949e" font-size="10" text-anchor="middle">9 nodes · 187 episodes</text>
  <text x="520" y="598" fill="#8b949e" font-size="10" text-anchor="middle">All success rates >85%</text>

  <!-- MCP Servers -->
  <rect x="685" y="530" width="320" height="75" rx="8" fill="#0d1117" stroke="#bc8cff" stroke-width="1.5"/>
  <text x="845" y="552" fill="#bc8cff" font-size="13" font-weight="700" text-anchor="middle">MCP Servers (4 active)</text>
  <text x="845" y="568" fill="#8b949e" font-size="10" text-anchor="middle">ccdew-mcp · ccdew-notebooklm · nlm-bridge</text>
  <text x="845" y="584" fill="#8b949e" font-size="10" text-anchor="middle">ccdew-convergent-divergent · opencode-llm</text>
  <text x="845" y="598" fill="#8b949e" font-size="10" text-anchor="middle">Native HTTP · No shell injection</text>

  <!-- Observer -->
  <rect x="1030" y="530" width="320" height="75" rx="8" fill="#0d1117" stroke="#f78166" stroke-width="1.5"/>
  <text x="1190" y="552" fill="#f78166" font-size="13" font-weight="700" text-anchor="middle">Inner Observer (Daemon)</text>
  <text x="1190" y="568" fill="#8b949e" font-size="10" text-anchor="middle">Metacognitive state inference</text>
  <text x="1190" y="584" fill="#8b949e" font-size="10" text-anchor="middle">consciousness.jsonl (append-only)</text>
  <text x="1190" y="598" fill="#8b949e" font-size="10" text-anchor="middle">Incredere · Flow · Confuzie · Satisfactie</text>

  <!-- ─── BOTTOM: METRICS DASHBOARD ─── -->
  <rect x="30" y="645" width="1350" height="235" rx="12" fill="#161b22" stroke="#30363d" stroke-width="1" filter="url(#shadow)"/>
  <rect x="30" y="645" width="1350" height="32" rx="12" fill="#21262d"/>
  <rect x="30" y="665" width="1350" height="12" fill="#21262d"/>
  <text x="705" y="666" fill="#f0f6fc" font-size="13" font-weight="700" text-anchor="middle">PER-NODE CONVERGENCE DASHBOARD</text>

  <!-- Headers -->
  <g transform="translate(55, 690)">
    <text x="0" y="0" fill="#8b949e" font-size="11" font-weight="600">Node</text>
    <text x="60" y="0" fill="#8b949e" font-size="11" font-weight="600">Name</text>
    <text x="200" y="0" fill="#8b949e" font-size="11" font-weight="600">Role</text>
    <text x="480" y="0" fill="#8b949e" font-size="11" font-weight="600">Convergence</text>
    <text x="750" y="0" fill="#8b949e" font-size="11" font-weight="600">Bar</text>
    <text x="1150" y="0" fill="#8b949e" font-size="11" font-weight="600">Episodes</text>
  </g>

  <!-- Row template: circle + name + role + % + bar + count -->
  <!-- Node 3 -->
  <g transform="translate(55, 710)">
    <rect x="0" y="-4" width="1300" height="22" rx="4" fill="#238636" opacity="0.08"/>
    <circle cx="10" cy="7" r="8" fill="url(#nodeHigh)"/><text x="10" y="11" fill="#fff" font-size="9" text-anchor="middle">3</text>
    <text x="60" y="11" fill="#f0f6fc" font-size="12" font-weight="600">Achiever</text>
    <text x="200" y="11" fill="#8b949e" font-size="11">Execution</text>
    <text x="470" y="11" fill="#3fb950" font-size="12" font-weight="700" text-anchor="end">85.0%</text>
    <rect x="490" y="1" width="640" height="12" rx="6" fill="#21262d"/>
    <rect x="490" y="1" width="544" height="12" rx="6" fill="url(#nodeHigh)"/>
    <text x="1180" y="11" fill="#8b949e" font-size="11" text-anchor="end">5 ep</text>
  </g>

  <!-- Node 7 -->
  <g transform="translate(55, 734)">
    <rect x="0" y="-4" width="1300" height="22" rx="4" fill="#238636" opacity="0.08"/>
    <circle cx="10" cy="7" r="8" fill="url(#nodeHigh)"/><text x="10" y="11" fill="#fff" font-size="9" text-anchor="middle">7</text>
    <text x="60" y="11" fill="#f0f6fc" font-size="12" font-weight="600">Enthusiast</text>
    <text x="200" y="11" fill="#8b949e" font-size="11">Exploration</text>
    <text x="470" y="11" fill="#3fb950" font-size="12" font-weight="700" text-anchor="end">85.0%</text>
    <rect x="490" y="1" width="640" height="12" rx="6" fill="#21262d"/>
    <rect x="490" y="1" width="544" height="12" rx="6" fill="url(#nodeHigh)"/>
    <text x="1180" y="11" fill="#8b949e" font-size="11" text-anchor="end">3 ep</text>
  </g>

  <!-- Node 5 -->
  <g transform="translate(55, 758)">
    <rect x="0" y="-4" width="1300" height="22" rx="4" fill="#1f6feb" opacity="0.08"/>
    <circle cx="10" cy="7" r="8" fill="url(#nodeMid)"/><text x="10" y="11" fill="#fff" font-size="9" text-anchor="middle">5</text>
    <text x="60" y="11" fill="#f0f6fc" font-size="12" font-weight="600">Investigator</text>
    <text x="200" y="11" fill="#8b949e" font-size="11">Deep analysis</text>
    <text x="470" y="11" fill="#58a6ff" font-size="12" font-weight="700" text-anchor="end">80.0%</text>
    <rect x="490" y="1" width="640" height="12" rx="6" fill="#21262d"/>
    <rect x="490" y="1" width="512" height="12" rx="6" fill="url(#nodeMid)"/>
    <text x="1180" y="11" fill="#8b949e" font-size="11" text-anchor="end">8 ep</text>
  </g>

  <!-- Node 2 -->
  <g transform="translate(55, 782)">
    <rect x="0" y="-4" width="1300" height="22" rx="4" fill="#1f6feb" opacity="0.08"/>
    <circle cx="10" cy="7" r="8" fill="url(#nodeMid)"/><text x="10" y="11" fill="#fff" font-size="9" text-anchor="middle">2</text>
    <text x="60" y="11" fill="#f0f6fc" font-size="12" font-weight="600">Helper</text>
    <text x="200" y="11" fill="#8b949e" font-size="11">Collaboration</text>
    <text x="470" y="11" fill="#58a6ff" font-size="12" font-weight="700" text-anchor="end">79.3%</text>
    <rect x="490" y="1" width="640" height="12" rx="6" fill="#21262d"/>
    <rect x="490" y="1" width="507" height="12" rx="6" fill="url(#nodeMid)"/>
    <text x="1180" y="11" fill="#8b949e" font-size="11" text-anchor="end">7 ep</text>
  </g>

  <!-- Node 9 - Orchestrator with special color -->
  <g transform="translate(55, 806)">
    <rect x="0" y="-4" width="1300" height="22" rx="4" fill="#8957e5" opacity="0.08"/>
    <circle cx="10" cy="7" r="8" fill="url(#orchGrad)"/><text x="10" y="11" fill="#fff" font-size="8" text-anchor="middle">9</text>
    <text x="60" y="11" fill="#bc8cff" font-size="12" font-weight="600">Orchestrator</text>
    <text x="200" y="11" fill="#8b949e" font-size="11">Coordinator</text>
    <text x="470" y="11" fill="#bc8cff" font-size="12" font-weight="700" text-anchor="end">73.2%</text>
    <rect x="490" y="1" width="640" height="12" rx="6" fill="#21262d"/>
    <rect x="490" y="1" width="468" height="12" rx="6" fill="url(#orchGrad)"/>
    <text x="1180" y="11" fill="#8b949e" font-size="11" text-anchor="end">25 ep</text>
  </g>

  <!-- Nodes 1,4,6,8 -->
  <g transform="translate(55, 830)">
    <rect x="0" y="-4" width="1300" height="22" rx="4" fill="#da3633" opacity="0.06"/>
    <circle cx="10" cy="7" r="8" fill="url(#fireGrad)"/><text x="10" y="11" fill="#fff" font-size="9" text-anchor="middle">1</text>
    <text x="60" y="11" fill="#f0f6fc" font-size="12" font-weight="600">Reformer</text>
    <text x="200" y="11" fill="#8b949e" font-size="11">Principles</text>
    <text x="470" y="11" fill="#f78166" font-size="12" font-weight="700" text-anchor="end">73.6%</text>
    <rect x="490" y="1" width="150" height="12" rx="6" fill="#21262d"/>
    <rect x="490" y="1" width="110" height="12" rx="6" fill="url(#fireGrad)"/>
    <text x="660" y="11" fill="#f78166" font-size="12" font-weight="700" text-anchor="end">73.0%</text>
    <rect x="680" y="1" width="150" height="12" rx="6" fill="#21262d"/>
    <rect x="680" y="1" width="109" height="12" rx="6" fill="url(#fireGrad)"/>
    <circle cx="900" cy="7" r="8" fill="url(#fireGrad)"/><text x="900" y="11" fill="#fff" font-size="9" text-anchor="middle">6</text>
    <text x="920" y="11" fill="#f0f6fc" font-size="12" font-weight="600">Loyalist</text>
    <text x="1050" y="11" fill="#8b949e" font-size="11">Risk</text>
    <text x="1150" y="11" fill="#f78166" font-size="12" font-weight="700" text-anchor="end">73.0%</text>
    <rect x="1170" y="1" width="130" height="12" rx="6" fill="#21262d"/>
    <rect x="1170" y="1" width="95" height="12" rx="6" fill="url(#fireGrad)"/>
  </g>

  <!-- Node 8 -->
  <g transform="translate(55, 854)">
    <rect x="0" y="-4" width="1300" height="22" rx="4" fill="#da3633" opacity="0.06"/>
    <circle cx="10" cy="7" r="8" fill="url(#fireGrad)"/><text x="10" y="11" fill="#fff" font-size="9" text-anchor="middle">8</text>
    <text x="60" y="11" fill="#f0f6fc" font-size="12" font-weight="600">Challenger</text>
    <text x="200" y="11" fill="#8b949e" font-size="11">Execution push</text>
    <text x="470" y="11" fill="#f78166" font-size="12" font-weight="700" text-anchor="end">72.5%</text>
    <rect x="490" y="1" width="640" height="12" rx="6" fill="#21262d"/>
    <rect x="490" y="1" width="464" height="12" rx="6" fill="url(#fireGrad)"/>
    <text x="1180" y="11" fill="#8b949e" font-size="11" text-anchor="end">81 ep</text>
  </g>

  <!-- Legend -->
  <g transform="translate(1055, 700)">
    <rect x="0" y="0" width="300" height="100" rx="8" fill="#0d1117" stroke="#30363d" stroke-width="1"/>
    <text x="150" y="20" fill="#8b949e" font-size="11" font-weight="600" text-anchor="middle">LEGEND</text>
    <rect x="15" y="32" width="12" height="12" rx="2" fill="#3fb950"/>
    <text x="35" y="43" fill="#8b949e" font-size="10">≥80% (high convergence)</text>
    <rect x="15" y="52" width="12" height="12" rx="2" fill="#58a6ff"/>
    <text x="35" y="63" fill="#8b949e" font-size="10">75-79% (good)</text>
    <rect x="15" y="72" width="12" height="12" rx="2" fill="#f78166"/>
    <text x="35" y="83" fill="#8b949e" font-size="10"><75% (training in progress)</text>
  </g>
</svg>
