<svg xmlns="http://www.w3.org/2000/svg" viewBox="0 0 1400 1050" style="background:#0d1117;font-family:'Segoe UI',system-ui,sans-serif">
  <defs>
    <linearGradient id="bgGrad" x1="0" y1="0" x2="0" y2="1">
      <stop offset="0%" stop-color="#0d1117"/>
      <stop offset="50%" stop-color="#161b22"/>
      <stop offset="100%" stop-color="#0d1117"/>
    </linearGradient>
    <linearGradient id="accentBlue" x1="0" y1="0" x2="1" y2="1">
      <stop offset="0%" stop-color="#58a6ff"/>
      <stop offset="100%" stop-color="#1f6feb"/>
    </linearGradient>
    <linearGradient id="accentGreen" x1="0" y1="0" x2="1" y2="1">
      <stop offset="0%" stop-color="#3fb950"/>
      <stop offset="100%" stop-color="#238636"/>
    </linearGradient>
    <linearGradient id="accentPurple" x1="0" y1="0" x2="1" y2="1">
      <stop offset="0%" stop-color="#bc8cff"/>
      <stop offset="100%" stop-color="#8957e5"/>
    </linearGradient>
    <linearGradient id="accentOrange" x1="0" y1="0" x2="1" y2="1">
      <stop offset="0%" stop-color="#f78166"/>
      <stop offset="100%" stop-color="#da3633"/>
    </linearGradient>
    <linearGradient id="barGrad" x1="0" y1="0" x2="1" y2="0">
      <stop offset="0%" stop-color="#3fb950"/>
      <stop offset="73.4%" stop-color="#3fb950"/>
      <stop offset="73.4%" stop-color="#21262d"/>
      <stop offset="100%" stop-color="#21262d"/>
    </linearGradient>
    <filter id="glow">
      <feGaussianBlur stdDeviation="3" result="blur"/>
      <feMerge><feMergeNode in="blur"/><feMergeNode in="SourceGraphic"/></feMerge>
    </filter>
    <filter id="shadow">
      <feDropShadow dx="0" dy="2" stdDeviation="4" flood-color="#000" flood-opacity="0.5"/>
    </filter>
  </defs>

  <rect width="1400" height="1050" fill="url(#bgGrad)"/>

  <!-- Header -->
  <text x="700" y="44" fill="#f0f6fc" font-size="28" font-weight="800" text-anchor="middle" letter-spacing="2">CCDEW — Autonomous AI Agent Ecosystem</text>
  <text x="700" y="70" fill="#8b949e" font-size="14" text-anchor="middle">Self-Improving · Measurable · Open Source</text>

  <!-- ═══ LAYOUT: 3 columns ═══ -->
  <!-- Column 1: PROBLEMS → 4 boxes -->
  <!-- Column 2: SOLUTION → 3 loops + bridge -->
  <!-- Column 3: USE CASES → 4 scenarios -->

  <!-- ─── COLUMN 1: PROBLEMS ─── -->
  <rect x="30" y="100" width="340" height="470" rx="12" fill="#161b22" stroke="#30363d" stroke-width="1" filter="url(#shadow)"/>
  <rect x="30" y="100" width="340" height="36" rx="12" fill="#21262d"/>
  <rect x="30" y="124" width="340" height="12" fill="#21262d"/>
  <text x="200" y="123" fill="#f78166" font-size="14" font-weight="700" text-anchor="middle">⚠ COMMON AI PROBLEMS</text>

  <!-- Problem 1 -->
  <rect x="50" y="150" width="300" height="70" rx="8" fill="#1c2333" stroke="#30363d" stroke-width="1"/>
  <text x="72" y="175" fill="#f78166" font-size="18">✕</text>
  <text x="95" y="175" fill="#f0f6fc" font-size="13" font-weight="600">LLMs never improve with use</text>
  <text x="95" y="193" fill="#8b949e" font-size="11">Same knowledge today = same knowledge<br/>tomorrow. Zero growth between sessions.</text>

  <!-- Problem 2 -->
  <rect x="50" y="235" width="300" height="70" rx="8" fill="#1c2333" stroke="#30363d" stroke-width="1"/>
  <text x="72" y="260" fill="#f78166" font-size="18">✕</text>
  <text x="95" y="260" fill="#f0f6fc" font-size="13" font-weight="600">One-size-fits-all reasoning</text>
  <text x="95" y="278" fill="#8b949e" font-size="11">Every task gets the same persona.<br/>No specialization. No cognitive diversity.</text>

  <!-- Problem 3 -->
  <rect x="50" y="320" width="300" height="70" rx="8" fill="#1c2333" stroke="#30363d" stroke-width="1"/>
  <text x="72" y="345" fill="#f78166" font-size="18">✕</text>
  <text x="95" y="345" fill="#f0f6fc" font-size="13" font-weight="600">No measurable quality metrics</text>
  <text x="95" y="363" fill="#8b949e" font-size="11">No way to tell if the system is getting<br/>better. No dashboard. No convergence target.</text>

  <!-- Problem 4 -->
  <rect x="50" y="405" width="300" height="70" rx="8" fill="#1c2333" stroke="#30363d" stroke-width="1"/>
  <text x="72" y="430" fill="#f78166" font-size="18">✕</text>
  <text x="95" y="430" fill="#f0f6fc" font-size="13" font-weight="600">Fragile and insecure</text>
  <text x="95" y="448" fill="#8b949e" font-size="11">One failure crashes everything. Shell<br/>injection in MCP. Race conditions in state.</text>

  <!-- Arrow: Problems → Solution -->
  <polygon points="370,300 390,290 390,310" fill="#30363d"/>

  <!-- ─── COLUMN 2: SOLUTION ─── -->
  <rect x="395" y="100" width="610" height="470" rx="12" fill="#161b22" stroke="#30363d" stroke-width="1" filter="url(#shadow)"/>
  <rect x="395" y="100" width="610" height="36" rx="12" fill="#21262d"/>
  <rect x="395" y="124" width="610" height="12" fill="#21262d"/>
  <text x="700" y="123" fill="#3fb950" font-size="14" font-weight="700" text-anchor="middle">✓ CCDEW SOLUTION — 3-LOOP LEARNING SYSTEM</text>

  <!-- Loop 1 -->
  <rect x="415" y="150" width="570" height="90" rx="8" fill="#1c2333" stroke="#58a6ff" stroke-width="1.5"/>
  <rect x="415" y="150" width="24" height="90" rx="8" fill="#58a6ff" opacity="0.15"/>
  <text x="430" y="175" fill="#58a6ff" font-size="11" font-weight="700" transform="rotate(-90,430,175)">L1</text>
  <text x="455" y="172" fill="#58a6ff" font-size="14" font-weight="700">Loop 1: Task Execution (≈seconds)</text>
  <text x="455" y="190" fill="#8b949e" font-size="11">Task → Enneagram Core (9 nodes) → Pipeline divergent/convergent → Record to SAFLA</text>

  <!-- Task flow mini -->
  <g transform="translate(460, 200)">
    <rect x="0" y="0" width="70" height="22" rx="11" fill="#21262d" stroke="#58a6ff" stroke-width="1"/>
    <text x="35" y="15" fill="#58a6ff" font-size="9" text-anchor="middle">Task In</text>
    <polygon points="72,11 82,11 77,6 77,16" fill="#58a6ff" opacity="0.5"/>
    <rect x="85" y="0" width="100" height="22" rx="4" fill="#21262d" stroke="#30363d" stroke-width="1"/>
    <text x="135" y="15" fill="#8b949e" font-size="9" text-anchor="middle">9 Nodes Select</text>
    <polygon points="187,11 197,11 192,6 192,16" fill="#58a6ff" opacity="0.5"/>
    <rect x="200" y="0" width="80" height="22" rx="4" fill="#21262d" stroke="#30363d" stroke-width="1"/>
    <text x="240" y="15" fill="#8b949e" font-size="9" text-anchor="middle">Pipeline</text>
    <polygon points="282,11 292,11 287,6 287,16" fill="#58a6ff" opacity="0.5"/>
    <rect x="295" y="0" width="70" height="22" rx="11" fill="#21262d" stroke="#58a6ff" stroke-width="1"/>
    <text x="330" y="15" fill="#58a6ff" font-size="9" text-anchor="middle">Record</text>
  </g>

  <!-- Loop 2 -->
  <rect x="415" y="255" width="570" height="90" rx="8" fill="#1c2333" stroke="#3fb950" stroke-width="1.5"/>
  <rect x="415" y="255" width="24" height="90" rx="8" fill="#3fb950" opacity="0.15"/>
  <text x="430" y="280" fill="#3fb950" font-size="11" font-weight="700" transform="rotate(-90,430,280)">L2</text>
  <text x="455" y="277" fill="#3fb950" font-size="14" font-weight="700">Loop 2: Self-Training (≈30s)</text>
  <text x="455" y="295" fill="#8b949e" font-size="11">Daemon picks weakest node → generates task → runs full cycle → measures convergence delta</text>

  <!-- Train flow mini -->
  <g transform="translate(460, 305)">
    <rect x="0" y="0" width="90" height="22" rx="11" fill="#21262d" stroke="#3fb950" stroke-width="1"/>
    <text x="45" y="15" fill="#3fb950" font-size="9" text-anchor="middle">Weakest Node</text>
    <polygon points="92,11 102,11 97,6 97,16" fill="#3fb950" opacity="0.5"/>
    <rect x="105" y="0" width="80" height="22" rx="4" fill="#21262d" stroke="#30363d" stroke-width="1"/>
    <text x="145" y="15" fill="#8b949e" font-size="9" text-anchor="middle">Generate</text>
    <polygon points="187,11 197,11 192,6 192,16" fill="#3fb950" opacity="0.5"/>
    <rect x="200" y="0" width="60" height="22" rx="4" fill="#21262d" stroke="#30363d" stroke-width="1"/>
    <text x="230" y="15" fill="#8b949e" font-size="9" text-anchor="middle">Train</text>
    <polygon points="262,11 272,11 267,6 267,16" fill="#3fb950" opacity="0.5"/>
    <rect x="275" y="0" width="90" height="22" rx="11" fill="#21262d" stroke="#3fb950" stroke-width="1"/>
    <text x="320" y="15" fill="#3fb950" font-size="9" text-anchor="middle">Measure Delta</text>
  </g>

  <!-- Loop 3 -->
  <rect x="415" y="360" width="570" height="90" rx="8" fill="#1c2333" stroke="#d29922" stroke-width="1.5"/>
  <rect x="415" y="360" width="24" height="90" rx="8" fill="#d29922" opacity="0.15"/>
  <text x="430" y="385" fill="#d29922" font-size="11" font-weight="700" transform="rotate(-90,430,385)">L3</text>
  <text x="455" y="382" fill="#d29922" font-size="14" font-weight="700">Loop 3: Pyramid Consolidation (≈10 episodes)</text>
  <text x="455" y="400" fill="#8b949e" font-size="11">Extracts patterns → techniques → attitudes → principles. Reverse mirror → separate channel.</text>

  <!-- Pyramid mini -->  
  <g transform="translate(460, 410)">
    <polygon points="40,0 80,0 95,12 25,12" fill="#21262d" stroke="#d29922" stroke-width="1"/>
    <text x="60" y="10" fill="#d29922" font-size="7" text-anchor="middle">N6</text>
    <polygon points="25,16 95,16 110,28 10,28" fill="#21262d" stroke="#d29922" stroke-width="0.8" opacity="0.7"/>
    <text x="60" y="26" fill="#8b949e" font-size="7" text-anchor="middle">N5</text>
    <polygon points="10,32 110,32 125,44 -5,44" fill="#21262d" stroke="#d29922" stroke-width="0.8" opacity="0.5"/>
    <text x="60" y="42" fill="#8b949e" font-size="7" text-anchor="middle">N4</text>
    <rect x="200" y="0" width="130" height="44" rx="6" fill="#0d1117" stroke="#21262d" stroke-width="1"/>
    <text x="265" y="16" fill="#8b949e" font-size="9" text-anchor="middle">Engines</text>
    <text x="265" y="30" fill="#8b949e" font-size="8" text-anchor="middle">hermes-memory.py</text>
    <text x="265" y="40" fill="#8b949e" font-size="8" text-anchor="middle">mirror_inverse.jsonl</text>
  </g>

  <!-- Bridge bar -->
  <rect x="415" y="465" width="570" height="40" rx="8" fill="#0d1117" stroke="#30363d" stroke-width="1"/>
  <circle cx="440" cy="485" r="6" fill="#3fb950" filter="url(#glow)"/>
  <text x="455" y="490" fill="#f0f6fc" font-size="12" font-weight="600">HTTP Bridge</text>
  <text x="570" y="490" fill="#8b949e" font-size="11">127.0.0.1:18777 · Single process · Zero race conditions · SAFLA single writer</text>

  <!-- Arrow: Solution → Use Cases -->
  <polygon points="1005,300 1025,290 1025,310" fill="#30363d"/>

  <!-- ─── COLUMN 3: USE CASES ─── -->
  <rect x="1030" y="100" width="340" height="470" rx="12" fill="#161b22" stroke="#30363d" stroke-width="1" filter="url(#shadow)"/>
  <rect x="1030" y="100" width="340" height="36" rx="12" fill="#21262d"/>
  <rect x="1030" y="124" width="340" height="12" fill="#21262d"/>
  <text x="1200" y="123" fill="#58a6ff" font-size="14" font-weight="700" text-anchor="middle">✓ USE CASES</text>

  <!-- Use case 1 -->
  <rect x="1050" y="150" width="300" height="70" rx="8" fill="#1c2333" stroke="#3fb950" stroke-width="1"/>
  <circle cx="1072" cy="175" r="10" fill="#3fb950" opacity="0.2"/>
  <text x="1072" y="179" fill="#3fb950" font-size="12" font-weight="700" text-anchor="middle">1</text>
  <text x="1095" y="175" fill="#f0f6fc" font-size="13" font-weight="600">Self-Improving AI Assistant</text>
  <text x="1095" y="193" fill="#8b949e" font-size="11">Deploy an agent that gets better<br/>every day without manual retuning.</text>

  <!-- Use case 2 -->
  <rect x="1050" y="235" width="300" height="70" rx="8" fill="#1c2333" stroke="#58a6ff" stroke-width="1"/>
  <circle cx="1072" cy="260" r="10" fill="#58a6ff" opacity="0.2"/>
  <text x="1072" y="264" fill="#58a6ff" font-size="12" font-weight="700" text-anchor="middle">2</text>
  <text x="1095" y="260" fill="#f0f6fc" font-size="13" font-weight="600">Multi-Perspective Analysis</text>
  <text x="1095" y="278" fill="#8b949e" font-size="11">Route a problem through 9 cognitive<br/>personas → get 9 perspectives →<br/>converge into one verdict.</text>

  <!-- Use case 3 -->
  <rect x="1050" y="320" width="300" height="70" rx="8" fill="#1c2333" stroke="#bc8cff" stroke-width="1"/>
  <circle cx="1072" cy="345" r="10" fill="#bc8cff" opacity="0.2"/>
  <text x="1072" y="349" fill="#bc8cff" font-size="12" font-weight="700" text-anchor="middle">3</text>
  <text x="1095" y="345" fill="#f0f6fc" font-size="13" font-weight="600">Quality Gate Automation</text>
  <text x="1095" y="363" fill="#8b949e" font-size="11">Pre-commit checks · pre-push gate<br/>code review · risk assessment<br/>all routed through best node.</text>

  <!-- Use case 4 -->
  <rect x="1050" y="405" width="300" height="70" rx="8" fill="#1c2333" stroke="#f78166" stroke-width="1"/>
  <circle cx="1072" cy="430" r="10" fill="#f78166" opacity="0.2"/>
  <text x="1072" y="434" fill="#f78166" font-size="12" font-weight="700" text-anchor="middle">4</text>
  <text x="1095" y="430" fill="#f0f6fc" font-size="13" font-weight="600">Research & Learning System</text>
  <text x="1095" y="448" fill="#8b949e" font-size="11">Memory pyramid auto-consolidates<br/>everything learned. N1 → N6<br/>principles extracted automatically.</text>

  <!-- ═══ BOTTOM: DASHBOARD ═══ -->
  <rect x="30" y="590" width="1340" height="440" rx="12" fill="#161b22" stroke="#30363d" stroke-width="1" filter="url(#shadow)"/>
  <rect x="30" y="590" width="1340" height="36" rx="12" fill="#21262d"/>
  <rect x="30" y="614" width="1340" height="12" fill="#21262d"/>
  <text x="700" y="613" fill="#3fb950" font-size="16" font-weight="800" text-anchor="middle">LIVE PERFORMANCE DASHBOARD</text>
  <text x="700" y="611" fill="#3fb950" font-size="10" font-weight="400" text-anchor="middle">(autonomous self-training daemon — updated every 30 seconds)</text>

  <!-- Big composite bar -->
  <g transform="translate(60, 640)">
    <text x="0" y="12" fill="#f0f6fc" font-size="15" font-weight="700">Composite Convergence</text>
    <text x="1260" y="12" fill="#3fb950" font-size="15" font-weight="700" text-anchor="end">73.4%</text>
    <rect x="0" y="22" width="1280" height="28" rx="14" fill="#21262d"/>
    <rect x="0" y="22" width="940" height="28" rx="14" fill="url(#barGrad)"/>
    <text x="940" y="40" fill="#f0f6fc" font-size="11" font-weight="700" text-anchor="end">73.4%</text>
    <text x="500" y="68" fill="#8b949e" font-size="11" text-anchor="middle">111 iterations · 187 episodes · 9 nodes tracked · Trend: converging</text>
    <text x="1270" y="68" fill="#3fb950" font-size="11" text-anchor="end">Target: 95%</text>
  </g>

  <!-- Node table -->
  <g transform="translate(60, 720)">
    <!-- Headers -->
    <rect x="0" y="0" width="1280" height="24" rx="4" fill="#0d1117"/>
    <text x="40" y="16" fill="#8b949e" font-size="10" font-weight="600">Node</text>
    <text x="90" y="16" fill="#8b949e" font-size="10" font-weight="600">Name</text>
    <text x="230" y="16" fill="#8b949e" font-size="10" font-weight="600">Role</text>
    <text x="480" y="16" fill="#8b949e" font-size="10" font-weight="600">Convergence</text>
    <text x="600" y="16" fill="#8b949e" font-size="10" font-weight="600">Bar</text>
    <text x="1200" y="16" fill="#8b949e" font-size="10" font-weight="600">Ep.</text>

    <!-- Node 3 - green -->
    <rect x="0" y="26" width="1280" height="24" rx="4" fill="#238636" opacity="0.06"/>
    <circle cx="20" cy="38" r="9" fill="#3fb950"/><text x="20" y="42" fill="#fff" font-size="9" text-anchor="middle">3</text>
    <text x="90" y="42" fill="#f0f6fc" font-size="12" font-weight="600">Achiever</text>
    <text x="230" y="42" fill="#8b949e" font-size="10">Execution</text>
    <text x="470" y="42" fill="#3fb950" font-size="12" font-weight="700" text-anchor="end">85.0%</text>
    <rect x="490" y="31" width="690" height="14" rx="7" fill="#21262d"/>
    <rect x="490" y="31" width="586" height="14" rx="7" fill="#3fb950"/>
    <text x="1240" y="42" fill="#8b949e" font-size="11" text-anchor="end">5</text>

    <!-- Node 7 - green -->
    <rect x="0" y="52" width="1280" height="24" rx="4" fill="#238636" opacity="0.06"/>
    <circle cx="20" cy="64" r="9" fill="#3fb950"/><text x="20" y="68" fill="#fff" font-size="9" text-anchor="middle">7</text>
    <text x="90" y="68" fill="#f0f6fc" font-size="12" font-weight="600">Enthusiast</text>
    <text x="230" y="68" fill="#8b949e" font-size="10">Exploration</text>
    <text x="470" y="68" fill="#3fb950" font-size="12" font-weight="700" text-anchor="end">85.0%</text>
    <rect x="490" y="57" width="690" height="14" rx="7" fill="#21262d"/>
    <rect x="490" y="57" width="586" height="14" rx="7" fill="#3fb950"/>
    <text x="1240" y="68" fill="#8b949e" font-size="11" text-anchor="end">3</text>

    <!-- Node 5 - blue -->
    <rect x="0" y="78" width="1280" height="24" rx="4" fill="#1f6feb" opacity="0.06"/>
    <circle cx="20" cy="90" r="9" fill="#58a6ff"/><text x="20" y="94" fill="#fff" font-size="9" text-anchor="middle">5</text>
    <text x="90" y="94" fill="#f0f6fc" font-size="12" font-weight="600">Investigator</text>
    <text x="230" y="94" fill="#8b949e" font-size="10">Deep analysis</text>
    <text x="470" y="94" fill="#58a6ff" font-size="12" font-weight="700" text-anchor="end">80.0%</text>
    <rect x="490" y="83" width="690" height="14" rx="7" fill="#21262d"/>
    <rect x="490" y="83" width="552" height="14" rx="7" fill="#58a6ff"/>
    <text x="1240" y="94" fill="#8b949e" font-size="11" text-anchor="end">8</text>

    <!-- Node 2 - blue -->
    <rect x="0" y="104" width="1280" height="24" rx="4" fill="#1f6feb" opacity="0.06"/>
    <circle cx="20" cy="116" r="9" fill="#58a6ff"/><text x="20" y="120" fill="#fff" font-size="9" text-anchor="middle">2</text>
    <text x="90" y="120" fill="#f0f6fc" font-size="12" font-weight="600">Helper</text>
    <text x="230" y="120" fill="#8b949e" font-size="10">Collaboration</text>
    <text x="470" y="120" fill="#58a6ff" font-size="12" font-weight="700" text-anchor="end">79.3%</text>
    <rect x="490" y="109" width="690" height="14" rx="7" fill="#21262d"/>
    <rect x="490" y="109" width="547" height="14" rx="7" fill="#58a6ff"/>
    <text x="1240" y="120" fill="#8b949e" font-size="11" text-anchor="end">7</text>

    <!-- Node 9 - purple (orchestrator) -->
    <rect x="0" y="130" width="1280" height="24" rx="4" fill="#8957e5" opacity="0.08"/>
    <circle cx="20" cy="142" r="9" fill="#bc8cff"/><text x="20" y="146" fill="#fff" font-size="8" text-anchor="middle">9</text>
    <text x="90" y="146" fill="#bc8cff" font-size="12" font-weight="600">Orchestrator</text>
    <text x="230" y="146" fill="#8b949e" font-size="10">Coordination</text>
    <text x="470" y="146" fill="#bc8cff" font-size="12" font-weight="700" text-anchor="end">73.2%</text>
    <rect x="490" y="135" width="690" height="14" rx="7" fill="#21262d"/>
    <rect x="490" y="135" width="505" height="14" rx="7" fill="#bc8cff"/>
    <text x="1240" y="146" fill="#8b949e" font-size="11" text-anchor="end">25</text>

    <!-- Nodes 1,4,6 row -->
    <g transform="translate(0, 156)">
      <rect x="0" y="0" width="420" height="24" rx="4" fill="#da3633" opacity="0.06"/>
      <circle cx="15" cy="12" r="9" fill="#f78166"/><text x="15" y="16" fill="#fff" font-size="9" text-anchor="middle">1</text>
      <text x="70" y="16" fill="#f0f6fc" font-size="12" font-weight="600">Reformer</text>
      <text x="180" y="16" fill="#8b949e" font-size="10">Principles</text>
      <text x="310" y="16" fill="#f78166" font-size="12" font-weight="700" text-anchor="end">73.6%</text>
      <rect x="320" y="5" width="90" height="14" rx="7" fill="#21262d"/>
      <rect x="320" y="5" width="66" height="14" rx="7" fill="#f78166"/>
      <text x="410" y="16" fill="#8b949e" font-size="10" text-anchor="end">8</text>
    </g>
    <g transform="translate(430, 156)">
      <rect x="0" y="0" width="420" height="24" rx="4" fill="#da3633" opacity="0.06"/>
      <circle cx="15" cy="12" r="9" fill="#f78166"/><text x="15" y="16" fill="#fff" font-size="9" text-anchor="middle">4</text>
      <text x="70" y="16" fill="#f0f6fc" font-size="12" font-weight="600">Individualist</text>
      <text x="180" y="16" fill="#8b949e" font-size="10">Perspectives</text>
      <text x="310" y="16" fill="#f78166" font-size="12" font-weight="700" text-anchor="end">73.0%</text>
      <rect x="320" y="5" width="90" height="14" rx="7" fill="#21262d"/>
      <rect x="320" y="5" width="66" height="14" rx="7" fill="#f78166"/>
      <text x="410" y="16" fill="#8b949e" font-size="10" text-anchor="end">13</text>
    </g>
    <g transform="translate(860, 156)">
      <rect x="0" y="0" width="420" height="24" rx="4" fill="#da3633" opacity="0.06"/>
      <circle cx="15" cy="12" r="9" fill="#f78166"/><text x="15" y="16" fill="#fff" font-size="9" text-anchor="middle">6</text>
      <text x="70" y="16" fill="#f0f6fc" font-size="12" font-weight="600">Loyalist</text>
      <text x="180" y="16" fill="#8b949e" font-size="10">Risk</text>
      <text x="310" y="16" fill="#f78166" font-size="12" font-weight="700" text-anchor="end">73.0%</text>
      <rect x="320" y="5" width="90" height="14" rx="7" fill="#21262d"/>
      <rect x="320" y="5" width="66" height="14" rx="7" fill="#f78166"/>
      <text x="410" y="16" fill="#8b949e" font-size="10" text-anchor="end">38</text>
    </g>

    <!-- Node 8 -->
    <g transform="translate(0, 182)">
      <rect x="0" y="0" width="1280" height="24" rx="4" fill="#da3633" opacity="0.06"/>
      <circle cx="15" cy="12" r="9" fill="#f78166"/><text x="15" y="16" fill="#fff" font-size="9" text-anchor="middle">8</text>
      <text x="70" y="16" fill="#f0f6fc" font-size="12" font-weight="600">Challenger</text>
      <text x="230" y="16" fill="#8b949e" font-size="10">Action & execution</text>
      <text x="470" y="16" fill="#f78166" font-size="12" font-weight="700" text-anchor="end">72.5%</text>
      <rect x="490" y="5" width="690" height="14" rx="7" fill="#21262d"/>
      <rect x="490" y="5" width="500" height="14" rx="7" fill="#f78166"/>
      <text x="1240" y="16" fill="#8b949e" font-size="11" text-anchor="end">81</text>
    </g>
  </g>

  <!-- Legend -->
  <g transform="translate(60, 960)">
    <rect x="0" y="0" width="1280" height="30" rx="6" fill="#0d1117" stroke="#21262d" stroke-width="1"/>
    <rect x="16" y="9" width="12" height="12" rx="2" fill="#3fb950"/>
    <text x="34" y="20" fill="#8b949e" font-size="11">≥80% (target met)</text>
    <rect x="150" y="9" width="12" height="12" rx="2" fill="#58a6ff"/>
    <text x="168" y="20" fill="#8b949e" font-size="11">75–79% (good)</text>
    <rect x="280" y="9" width="12" height="12" rx="2" fill="#f78166"/>
    <text x="298" y="20" fill="#8b949e" font-size="11">&lt;75% (training active)</text>
    <rect x="440" y="9" width="12" height="12" rx="2" fill="#bc8cff"/>
    <text x="458" y="20" fill="#8b949e" font-size="11">Orchestrator (router)</text>
    <text x="1100" y="20" fill="#8b949e" font-size="11" text-anchor="end">All nodes above 72% · 111 auto-iterations · 187 episodes</text>
  </g>
</svg>
